# xmcd
#
# Track frame offsets:
# 150
# 17647
# 31571
# 47100
# 61880
# 76133
# 85628
# 97903
# 104434
# 129591
# 145233
# 156681
# 169408
# 185606
#
# Disc length: 2671 seconds
#
#
# Revision: 1
# Processed by: cddbd v1.5.1PL0 Copyright (c) Steve Scherf et al.
# Submitted via: FreeRIP 2.90 
#
DISCID=b00a6d0e
DTITLE=João Bosco e Vinicius - Acústico No Bar
DYEAR=2003
DGENRE=Sertanejo
TTITLE0=Tatuagem
TTITLE1=Magia E Mistério
TTITLE2=Quero Provar Que Te Amo
TTITLE3=Hoje Eu Quero Te Amar
TTITLE4=Faz De Conta
TTITLE5=Luz Da Minha Vida
TTITLE6=Avião Das Nove
TTITLE7=Memória
TTITLE8=Caçador De Corações
TTITLE9=Pout Porri-Pagode Em Brasília-Pagode-Falou E Disse
TTITLE10=Saudade
TTITLE11=De Igual Pra Igual
TTITLE12=Esse Amor Que Mata
TTITLE13=Não Precissa Perdão
EXTD=D
EXTT0=
EXTT1=
EXTT2=
EXTT3=
EXTT4=
EXTT5=
EXTT6=
EXTT7=
EXTT8=
EXTT9=
EXTT10=
EXTT11=
EXTT12=
EXTT13=
PLAYORDER=
